<?xml version="1.0" standalone="no"?>
<!DOCTYPE svg PUBLIC "-//W3C//DTD SVG 20010904//EN"
 "http://www.w3.org/TR/2001/REC-SVG-20010904/DTD/svg10.dtd">
<svg version="1.0" xmlns="http://www.w3.org/2000/svg"
 width="2048.000000pt" height="2048.000000pt" viewBox="0 0 2048.000000 2048.000000"
 preserveAspectRatio="xMidYMid meet">
<metadata>
Created by potrace 1.14, written by Peter Selinger 2001-2017
</metadata>
<g transform="translate(0.000000,2048.000000) scale(0.100000,-0.100000)"
fill="#000000" stroke="none">
<path d="M10137 19024 c-1 -1 -495 -5 -1097 -8 -602 -4 -1198 -8 -1325 -11
-612 -11 -1128 -26 -1380 -41 -49 -2 -128 -7 -175 -9 -47 -2 -121 -7 -165 -10
-44 -3 -111 -8 -150 -11 -38 -2 -97 -7 -130 -10 -65 -6 -117 -11 -210 -19 -33
-2 -94 -9 -135 -14 -41 -5 -78 -7 -82 -5 -4 3 -8 2 -8 -3 0 -4 -15 -8 -33 -9
-33 -1 -122 -11 -167 -19 -14 -2 -45 -7 -70 -10 -54 -7 -84 -11 -130 -20 -19
-4 -44 -8 -55 -10 -77 -11 -127 -20 -250 -46 -77 -16 -149 -31 -160 -33 -22
-4 -176 -44 -290 -75 -38 -10 -117 -35 -175 -55 -58 -20 -113 -39 -122 -41
-89 -20 -574 -251 -586 -277 -2 -5 -8 -8 -13 -8 -17 0 -178 -110 -283 -193
-91 -73 -263 -237 -341 -327 -76 -88 -220 -298 -287 -420 -80 -145 -88 -161
-88 -172 0 -6 -6 -19 -14 -27 -7 -9 -21 -38 -31 -66 -10 -27 -22 -54 -25 -60
-23 -31 -143 -374 -176 -500 -11 -43 -11 -45 -14 -47 -2 -4 -3 -7 -36 -143
-32 -137 -30 -125 -37 -155 -4 -14 -9 -36 -11 -50 -2 -14 -11 -59 -20 -100 -8
-42 -17 -91 -20 -110 -2 -19 -7 -46 -10 -60 -3 -14 -8 -41 -11 -60 -2 -19 -7
-46 -9 -60 -13 -68 -49 -354 -50 -392 0 -10 -3 -18 -6 -18 -3 0 -5 -15 -5 -32
-1 -37 -13 -187 -20 -233 -5 -35 -14 -134 -20 -238 -3 -39 -7 -99 -10 -132 -7
-100 -17 -265 -20 -355 -2 -47 -4 -85 -5 -85 -1 0 -4 -92 -15 -405 -9 -288
-15 -566 -20 -883 -2 -170 -6 -311 -8 -313 -3 -3 -1 -20 3 -37 4 -18 4 -42 0
-52 -9 -25 -6 -4682 3 -5180 12 -625 24 -1011 42 -1380 6 -135 16 -300 20
-345 2 -25 7 -81 10 -125 3 -44 7 -100 9 -125 2 -25 7 -83 11 -130 3 -47 8
-96 10 -110 2 -14 7 -54 10 -90 3 -36 8 -76 10 -90 2 -14 7 -47 10 -75 8 -69
20 -166 30 -235 3 -19 14 -89 26 -155 11 -66 22 -129 24 -140 9 -55 62 -300
70 -325 3 -10 8 -28 10 -39 51 -264 273 -849 387 -1018 15 -23 28 -44 28 -48
0 -6 122 -196 140 -218 5 -7 40 -50 77 -97 70 -89 257 -281 332 -340 24 -19
48 -40 55 -46 20 -19 201 -146 215 -152 8 -3 37 -21 65 -39 50 -34 299 -160
386 -197 121 -51 217 -86 232 -86 10 0 18 -4 18 -10 0 -5 9 -10 20 -10 10 0
32 -5 47 -11 60 -24 69 -27 88 -32 11 -3 85 -23 165 -45 178 -48 334 -85 418
-98 20 -3 39 -7 42 -9 3 -2 26 -6 50 -10 25 -3 52 -8 60 -10 8 -3 35 -7 59
-10 24 -3 47 -7 50 -10 4 -2 36 -7 71 -10 36 -4 67 -8 70 -10 3 -2 30 -6 60
-10 30 -3 66 -8 80 -9 25 -4 106 -14 170 -21 19 -2 58 -6 85 -10 28 -3 77 -8
110 -10 33 -3 78 -7 100 -9 37 -4 83 -8 250 -21 33 -3 105 -7 160 -10 55 -3
126 -7 158 -10 88 -7 452 -22 742 -30 714 -21 1581 -28 3420 -28 2767 -1 3909
18 4705 78 30 2 98 7 150 11 52 3 109 8 125 10 17 1 55 5 85 8 156 14 330 34
373 42 10 2 45 6 78 9 33 4 70 8 82 11 12 2 45 7 72 10 28 3 53 7 56 9 3 2 28
7 55 10 27 4 57 9 67 11 10 3 32 7 50 10 62 8 293 56 402 85 22 5 47 11 55 13
8 1 35 9 60 16 25 7 50 14 57 16 7 1 45 12 85 25 40 13 75 24 78 24 3 0 43 13
90 29 75 24 114 39 170 66 9 4 30 11 48 15 18 3 32 11 32 16 0 5 7 9 16 9 9 0
28 6 42 14 15 7 70 34 122 59 196 94 360 197 535 337 99 78 268 244 335 329
19 24 40 48 45 55 6 6 33 43 60 81 27 39 52 72 55 75 3 3 10 14 17 25 7 11 31
52 55 90 42 69 188 350 188 360 -1 3 9 27 21 53 11 26 22 52 23 57 2 6 8 24
15 40 7 17 19 45 27 63 8 18 14 41 14 50 0 10 4 22 9 27 8 9 34 90 87 270 21
72 22 75 27 100 3 11 16 67 30 125 27 111 53 234 63 296 8 48 12 72 18 92 3 9
7 39 11 65 3 26 10 70 15 98 5 27 9 53 8 57 -1 4 2 23 5 42 10 51 18 110 23
155 2 22 6 60 10 85 3 25 7 63 9 85 2 22 6 65 10 95 10 96 21 208 30 330 2 36
7 95 10 132 5 70 12 194 20 363 3 55 7 136 9 180 11 197 22 619 32 1200 6 337
11 4335 6 4680 -1 50 -1 97 -1 105 1 30 -11 802 -16 1035 -15 673 -20 839 -30
855 -3 5 -1 10 5 10 6 0 9 4 6 9 -3 5 -8 67 -11 137 -11 253 -19 412 -30 539
-2 28 -6 86 -10 130 -3 44 -8 105 -11 135 -3 30 -7 82 -9 115 -3 33 -8 83 -11
110 -3 28 -8 64 -9 80 -11 108 -16 148 -25 210 -5 39 -12 86 -15 105 -7 50
-26 180 -31 215 -3 17 -7 37 -9 45 -2 8 -6 32 -9 53 -4 21 -13 71 -21 110 -8
40 -16 84 -19 100 -3 15 -8 37 -11 48 -4 12 -8 31 -10 42 -2 19 -78 311 -89
342 -1 6 -6 24 -11 40 -22 87 -107 320 -156 432 -11 24 -19 45 -19 48 0 13
-125 254 -175 339 -198 335 -441 591 -777 820 -54 36 -100 66 -103 66 -2 0
-38 20 -80 45 -41 24 -75 42 -75 39 0 -3 -12 3 -27 14 -16 10 -77 40 -138 66
-60 26 -119 52 -130 56 -48 21 -103 43 -145 56 -25 8 -54 19 -65 24 -43 19
-364 111 -475 136 -53 12 -53 12 -80 17 -14 3 -58 13 -97 21 -70 15 -95 20
-158 31 -16 3 -55 10 -85 16 -30 6 -68 12 -85 14 -16 3 -43 7 -60 9 -54 8
-179 25 -225 31 -25 3 -56 7 -70 9 -14 3 -52 8 -85 11 -33 3 -78 8 -100 10
-86 9 -251 24 -330 30 -33 2 -91 7 -130 10 -237 19 -653 38 -1080 50 -71 2
-132 5 -135 6 -3 1 -8 1 -11 1 -23 -3 -112 -2 -294 2 -401 10 -3409 27 -3418
20z"/>
</g>
</svg>
